<svg version="1.0" xmlns="http://www.w3.org/2000/svg"
 width="1440.000000pt" height="1440.000000pt" viewBox="0 0 1440.000000 1440.000000"
 preserveAspectRatio="xMidYMid meet">
<metadata>
Created by potrace 1.16, written by Peter Selinger 2001-2019
</metadata>
<g transform="translate(0.000000,1440.000000) scale(0.100000,-0.100000)"
fill="#000000" stroke="none">
<path d="M7374 13445 c8 -21 -3 -45 -22 -45 -8 0 -24 -7 -33 -16 -14 -13 -16
-21 -8 -35 14 -27 -16 -37 -41 -14 -13 12 -20 14 -20 6 0 -8 -7 -10 -20 -6
-28 9 -25 -11 5 -47 26 -31 32 -48 15 -48 -5 0 -10 6 -10 13 0 19 -38 47 -55
41 -8 -4 -15 -1 -15 5 0 6 -5 11 -12 11 -6 0 -2 -10 10 -23 24 -26 29 -47 10
-47 -7 0 -1 -10 13 -23 35 -29 48 -83 22 -90 -14 -4 -13 -5 5 -6 25 -1 30 -19
7 -27 -20 -8 -45 13 -45 37 0 14 -7 19 -29 19 -16 0 -32 6 -34 13 -3 7 -6 5
-6 -5 -1 -12 -9 -18 -26 -18 -26 0 -34 -14 -12 -24 24 -10 -68 7 -108 20 -22
8 -49 14 -60 14 -11 0 -35 9 -53 20 -48 29 -58 25 -29 -13 32 -42 46 -107 24
-107 -8 0 -17 6 -20 13 -3 8 -10 5 -22 -10 -9 -13 -25 -23 -36 -23 -10 0 -19
-7 -19 -15 0 -8 -4 -15 -10 -15 -21 0 -9 30 19 44 16 9 30 14 32 13 3 -1 1 2
-3 8 -5 5 -8 19 -8 32 0 13 -4 23 -9 23 -14 0 -26 -22 -23 -42 4 -22 -16 -24
-24 -3 -15 39 -58 -11 -47 -54 11 -42 -22 -21 -45 29 -25 55 -39 66 -27 23 13
-46 7 -77 -20 -100 -31 -27 -31 -34 0 -57 27 -20 34 -49 10 -40 -23 9 -30 -24
-10 -46 16 -17 16 -19 -4 -39 -26 -26 -11 -36 35 -21 19 7 38 9 41 6 12 -11
-6 -18 -54 -19 -33 -1 -52 -8 -61 -19 -7 -10 -19 -18 -27 -18 -8 0 -19 -8 -24
-18 -5 -10 -29 -25 -53 -33 -64 -21 -105 -44 -101 -56 2 -6 -1 -14 -6 -18 -7
-3 -11 3 -11 15 0 19 -4 20 -37 14 -21 -4 -56 -15 -77 -25 -32 -15 -46 -17
-77 -9 -21 6 -40 16 -43 23 -3 8 -8 7 -16 -5 -10 -16 -14 -14 -55 14 -46 33
-56 54 -30 64 8 4 15 12 15 20 0 8 7 14 16 14 8 0 12 -5 9 -10 -14 -22 27 -22
51 1 18 17 23 30 20 56 -4 41 -11 49 -29 35 -7 -6 -23 -9 -35 -5 -23 6 -31
-12 -9 -20 8 -3 5 -11 -10 -26 -13 -12 -23 -17 -23 -11 0 5 -5 10 -11 10 -6 0
-9 -9 -6 -20 8 -30 -12 -38 -81 -31 -34 4 -68 3 -76 -1 -17 -9 -76 1 -76 13 0
15 -27 10 -40 -6 -10 -12 -10 -19 -2 -27 20 -20 13 -48 -13 -60 -14 -6 -25
-17 -25 -25 0 -7 -8 -16 -17 -20 -10 -3 -26 -13 -35 -21 -10 -8 -28 -12 -43
-10 -14 3 -28 2 -31 -3 -2 -4 -11 -6 -19 -2 -10 3 -15 -2 -15 -16 0 -14 6 -21
20 -21 21 0 28 -16 9 -22 -6 -2 6 -21 25 -41 20 -21 39 -49 42 -63 3 -13 10
-24 15 -24 4 0 19 -12 33 -27 17 -19 22 -31 15 -39 -5 -6 -7 -19 -3 -28 7 -18
24 -22 24 -6 0 6 7 10 15 10 19 0 19 -7 1 -26 -20 -19 -21 -19 -59 20 -18 18
-38 35 -43 37 -16 7 -64 77 -64 93 0 25 -24 96 -32 96 -41 0 62 -246 128 -308
20 -19 24 -30 19 -53 -6 -28 7 -40 20 -19 14 22 26 9 20 -20 -4 -19 -3 -30 4
-30 6 0 23 -25 37 -54 23 -50 68 -95 81 -83 2 3 0 15 -7 26 -12 24 -1 28 30
11 16 -8 18 -8 14 5 -7 17 21 22 31 5 3 -5 24 -10 45 -10 21 0 41 -4 44 -9 3
-4 23 -11 43 -15 42 -7 77 -29 72 -45 -3 -6 -20 -4 -44 5 -41 14 -85 11 -85
-6 0 -5 17 -12 38 -15 20 -4 50 -12 65 -19 29 -13 77 -10 77 4 0 5 -9 12 -20
15 -11 4 -19 13 -18 22 2 8 -5 20 -16 27 -10 6 -33 23 -50 38 -20 18 -40 27
-58 26 -26 -2 -68 25 -68 45 0 6 -7 19 -17 29 -25 28 -9 32 36 9 48 -25 51
-25 51 -7 0 22 17 28 40 16 23 -12 27 -1 9 32 -9 17 -8 24 2 32 14 11 39 51
39 62 0 3 -9 3 -19 -1 -26 -8 -90 20 -97 42 -3 10 -10 26 -15 36 -12 23 -3 35
13 19 7 -7 21 -12 33 -12 36 1 149 55 182 88 17 18 29 32 25 32 -3 0 -1 5 6
12 7 7 40 19 74 28 57 14 93 40 51 36 -10 0 -18 4 -18 11 0 12 55 53 88 66 9
3 17 11 17 17 0 5 9 10 20 10 11 0 34 8 52 18 36 19 136 47 144 39 2 -2 -19
-14 -48 -27 -64 -27 -140 -80 -115 -80 9 0 17 5 17 10 0 6 10 10 23 10 13 0
41 13 63 29 21 16 49 32 61 35 13 4 20 13 17 20 -4 10 7 15 35 18 23 2 42 0
43 -3 2 -4 23 -8 48 -9 84 -3 88 -2 86 25 -1 23 -3 24 -53 19 -69 -6 -71 13
-5 43 79 35 155 48 202 34 33 -10 46 -9 73 3 50 22 104 26 140 11 34 -14 91
-65 108 -97 8 -15 6 -18 -13 -17 -13 0 -47 8 -77 18 -53 17 -55 17 -74 -2 -11
-11 -27 -17 -38 -14 -27 7 -24 -7 12 -60 l32 -46 -32 19 c-31 18 -66 66 -55
76 3 3 -2 8 -11 11 -18 8 -20 -4 -3 -21 18 -18 -23 -16 -48 2 -18 14 -18 15
-1 21 14 6 15 10 6 21 -14 17 -36 18 -41 2 -4 -10 -10 -10 -32 0 -32 15 -76
16 -76 2 0 -5 12 -10 26 -10 32 0 59 -15 99 -52 l30 -29 -58 26 c-71 31 -70
31 -65 1 5 -24 5 -25 -61 -19 -36 3 -93 0 -126 -6 -63 -11 -203 -77 -249 -116
-15 -13 -51 -33 -81 -45 -61 -25 -84 -53 -35 -43 19 3 30 1 30 -6 0 -6 7 -11
15 -11 18 0 20 17 3 23 -7 2 -2 8 12 11 30 8 84 -9 75 -24 -4 -6 1 -7 12 -3
16 6 16 5 4 -10 -7 -9 -27 -17 -45 -17 -41 0 -124 -30 -131 -47 -3 -9 -1 -11
8 -6 6 4 21 9 32 10 83 11 112 17 130 29 29 19 119 14 123 -7 1 -8 -7 -21 -20
-27 -22 -12 -21 -12 7 -7 17 3 36 15 44 25 14 21 55 27 66 10 3 -5 10 -10 16
-10 5 0 9 5 9 10 0 6 -6 10 -12 10 -7 0 -31 12 -53 26 l-40 25 35 -5 c92 -15
110 -19 110 -27 0 -12 85 -11 139 2 46 10 66 5 41 -12 -10 -6 -5 -7 18 -3 19
4 32 2 32 -4 0 -12 -56 -23 -135 -27 -33 -1 -81 -10 -108 -19 -26 -9 -73 -19
-105 -22 -49 -5 -121 -23 -172 -43 -8 -3 9 -7 39 -9 30 -2 57 1 60 5 3 5 47 9
96 10 108 1 90 -9 -60 -33 -58 -10 -114 -24 -123 -31 -15 -13 -15 -13 7 -7 13
3 44 8 70 10 109 8 326 21 328 19 4 -3 -248 -64 -294 -71 -24 -4 -51 -13 -60
-20 -16 -12 -9 -13 50 -14 50 0 67 -3 67 -14 0 -7 10 -16 22 -20 15 -3 19 -9
13 -15 -12 -12 -165 -35 -220 -34 -32 1 -35 -1 -15 -6 24 -7 24 -8 -10 -19
-45 -15 -227 -17 -263 -3 -44 17 -55 13 -22 -9 30 -20 85 -33 182 -45 43 -6
51 -10 45 -23 -5 -15 -4 -15 12 -3 15 13 19 13 27 0 12 -19 11 -25 -5 -38 -9
-7 -17 -8 -20 -2 -6 10 -46 3 -46 -8 0 -4 5 -12 10 -17 17 -17 1 -41 -46 -65
-45 -24 -65 -49 -39 -49 18 0 19 -12 3 -28 -9 -9 -9 -12 0 -12 7 0 12 4 12 9
0 15 32 22 46 10 11 -9 15 -7 20 5 7 18 34 22 34 5 0 -7 12 -10 30 -7 38 6 62
-17 28 -25 -18 -5 -20 -9 -10 -19 10 -10 15 -10 22 2 7 10 10 11 10 3 0 -7 7
-13 15 -13 8 0 15 5 15 10 0 6 12 10 28 10 l27 -1 -28 -15 c-15 -8 -25 -19
-22 -24 11 -18 31 -10 58 20 30 33 47 38 47 14 0 -9 -9 -18 -20 -21 -11 -3
-20 -9 -20 -14 0 -16 22 -10 54 15 43 32 185 46 223 21 20 -14 40 -16 97 -11
114 9 157 17 162 31 4 10 14 11 36 4 21 -6 36 -5 45 2 7 6 19 9 27 6 14 -6 58
33 55 49 -5 26 4 34 35 34 46 0 86 16 86 35 0 8 9 15 20 15 11 0 20 6 20 14 0
8 11 17 24 20 14 3 28 15 31 26 7 21 25 28 25 9 0 -6 7 -8 16 -5 8 3 28 -1 45
-9 16 -9 32 -14 36 -13 5 2 8 -9 8 -24 1 -22 -6 -30 -40 -44 -22 -10 -58 -20
-80 -23 -34 -5 -40 -10 -40 -30 0 -30 -17 -37 -39 -16 -15 15 -17 14 -27 -8
-14 -31 -39 -31 -39 0 0 23 -1 23 -34 9 -19 -8 -37 -12 -40 -8 -3 3 -6 -2 -6
-11 0 -11 12 -18 38 -23 33 -6 72 -35 72 -54 0 -4 -12 -10 -27 -13 -16 -3 -37
-13 -48 -21 -29 -22 -11 -45 63 -81 33 -17 80 -51 104 -76 24 -25 64 -61 91
-79 26 -18 47 -37 47 -41 0 -4 17 -18 38 -30 50 -32 59 -39 99 -79 61 -62 66
-83 58 -282 -3 -97 -10 -191 -15 -210 -7 -21 -6 -53 0 -88 19 -107 14 -193
-17 -294 -5 -16 -6 -51 -3 -78 5 -33 2 -54 -6 -66 -22 -28 -18 -45 7 -32 23
13 76 4 96 -15 7 -7 14 -32 15 -54 4 -57 28 -50 44 12 7 26 16 53 22 60 5 7
10 45 11 85 1 67 3 77 31 108 16 19 30 32 30 28 0 -16 39 30 51 59 17 42 16
42 34 24 8 -9 15 -27 15 -42 0 -14 7 -42 15 -62 21 -51 19 -65 -16 -99 -53
-50 -72 -99 -77 -199 -2 -49 -6 -109 -9 -132 -3 -28 -1 -43 6 -43 6 0 11 9 11
20 0 19 8 41 39 112 12 28 22 38 39 38 l23 0 -20 29 c-37 51 -32 55 109 93 99
26 120 47 127 128 3 34 2 65 -3 68 -5 4 -18 25 -29 46 -25 50 -90 99 -114 87
-14 -8 -17 -3 -16 34 0 52 6 60 34 43 15 -9 20 -20 16 -34 -6 -27 10 -34 72
-34 l45 0 -7 47 c-7 47 -7 47 12 30 36 -32 43 -18 18 32 -33 64 -31 77 8 102
67 42 162 5 199 -79 35 -78 10 -219 -57 -336 -64 -109 -78 -130 -157 -234 -80
-105 -85 -116 -92 -192 -5 -48 -15 -100 -21 -109 -3 -6 -8 -271 -6 -314 1 -16
4 -15 24 5 12 13 29 23 37 23 9 0 20 17 28 41 8 26 23 46 43 58 56 33 87 77
133 185 77 182 126 286 186 396 18 33 59 112 92 175 33 63 65 122 72 130 14
16 63 109 120 230 20 41 47 95 60 120 14 25 31 64 38 88 7 23 16 42 21 42 4 0
5 -4 2 -10 -3 -5 -2 -10 3 -10 18 0 41 36 53 83 10 41 9 51 -3 64 -16 16 -13
103 4 114 14 9 -6 84 -22 84 -10 0 -20 20 -28 60 -8 33 -22 94 -32 134 -14 54
-16 79 -8 88 5 7 13 11 17 8 14 -8 101 -162 101 -179 0 -9 5 -16 11 -16 18 0
2 46 -52 141 -54 96 -53 95 -122 153 -53 45 -60 66 -21 66 l25 0 -20 29 c-18
25 -19 34 -10 87 11 61 1 114 -21 114 -6 0 -8 5 -5 11 4 6 0 16 -7 22 -8 7
-21 39 -27 72 -13 61 -67 172 -104 213 -14 15 -27 20 -41 16 -15 -4 -17 -3 -7
4 11 8 2 27 -43 95 -31 46 -56 88 -56 92 0 4 -14 24 -30 44 -17 20 -34 41 -39
46 -4 6 -43 43 -87 83 -71 64 -211 152 -244 152 -6 0 -54 18 -107 41 -114 48
-188 59 -232 33 -21 -13 -33 -15 -43 -7 -25 19 -68 25 -74 9 -7 -18 -93 -43
-152 -44 -28 -1 -63 -12 -100 -32 -59 -33 -112 -46 -112 -29 0 5 12 14 28 20
15 7 22 13 14 16 -6 3 -9 9 -6 14 3 6 12 5 21 -3 13 -11 18 -9 31 10 8 12 25
22 38 22 13 0 24 4 24 8 0 5 21 8 48 8 39 -1 47 2 46 16 -1 13 12 22 49 33 44
13 53 13 66 0 10 -8 22 -11 30 -6 9 6 7 10 -11 15 -12 3 -33 21 -46 38 -80
113 -107 148 -145 186 -23 23 -45 42 -49 42 -3 0 -13 6 -20 13 -7 6 -31 25
-53 41 -22 17 -49 40 -60 52 -11 12 -32 29 -47 38 -14 10 -37 33 -50 51 -23
35 -45 47 -34 20z"/>
<path d="M5390 12015 c0 -3 14 -35 32 -72 22 -47 50 -86 92 -125 51 -48 57
-58 39 -58 -13 0 -38 18 -65 47 -24 25 -50 54 -59 63 -8 9 -23 27 -32 41 -18
24 -18 24 -12 -21 9 -63 36 -151 55 -174 37 -48 134 -146 144 -146 6 0 18 -5
26 -10 13 -9 13 -11 0 -20 -11 -7 -5 -10 23 -10 23 0 36 -4 32 -10 -3 -5 3
-10 15 -10 12 0 19 -4 15 -9 -3 -6 -18 -6 -37 0 -17 5 -34 7 -36 4 -11 -10 21
-33 55 -40 19 -3 44 -11 54 -16 11 -5 28 -13 38 -19 14 -6 21 -6 24 3 3 9 8 9
20 -2 10 -8 24 -10 34 -6 10 4 38 9 63 12 24 2 48 9 51 15 9 14 -33 39 -42 25
-4 -6 -13 -6 -23 0 -16 9 -16 11 -1 23 13 10 21 11 34 3 15 -9 22 -7 37 10 16
18 43 79 44 97 0 3 -29 3 -65 2 -43 -3 -71 1 -81 9 -14 11 -13 14 1 22 11 6
21 5 28 -2 16 -16 103 -14 136 4 16 8 31 12 34 9 8 -8 47 15 47 27 0 6 -14 9
-32 7 -17 -2 -33 2 -35 7 -4 13 35 29 110 45 31 7 57 17 57 22 0 15 -31 21
-43 9 -6 -6 -23 -11 -39 -11 -20 0 -26 4 -22 15 7 16 -48 45 -84 45 -11 0 -37
8 -58 17 -36 15 -82 18 -94 6 -9 -8 33 -33 57 -33 13 0 23 -4 23 -10 0 -10
-16 -12 -88 -15 -32 -1 -52 -17 -52 -42 0 -8 14 -13 39 -13 42 0 55 -9 45 -33
-8 -22 -138 -43 -165 -26 -8 5 -9 9 -3 9 7 0 14 9 17 21 5 20 7 20 37 4 23
-12 35 -14 43 -6 8 8 6 11 -6 11 -9 0 -17 5 -17 10 0 6 -7 10 -15 10 -9 0 -20
11 -25 24 -8 23 -37 46 -57 46 -5 0 -9 -9 -9 -20 0 -13 7 -20 18 -20 13 0 18
-8 18 -26 0 -25 0 -25 -34 11 -19 20 -33 42 -30 49 3 7 -2 18 -10 25 -11 9
-13 18 -6 31 9 17 4 30 -11 30 -4 0 -10 -9 -14 -19 -13 -43 -99 -32 -111 13
-4 18 -12 25 -27 23 -13 -1 -23 5 -25 16 -2 11 3 17 13 17 9 0 15 5 13 12 -6
18 -28 21 -28 4 0 -31 -19 -16 -36 29 -9 25 -21 45 -25 45 -5 0 -9 -2 -9 -5z"/>
<path d="M6527 11356 c-15 -14 -27 -30 -27 -35 0 -19 23 -61 34 -62 6 -1 95
-1 198 0 190 2 237 -4 321 -45 16 -8 39 -14 52 -14 12 0 26 -7 29 -16 4 -10
13 -13 25 -9 11 3 22 1 26 -5 3 -6 11 -8 16 -5 5 4 9 1 9 -6 0 -15 135 -8 152
9 9 9 5 20 -22 47 -43 44 -114 77 -250 117 -89 26 -113 29 -160 22 -89 -12
-221 -11 -280 4 -30 8 -64 16 -75 19 -13 3 -31 -5 -48 -21z"/>
<path d="M5943 11350 c-28 -3 -55 -9 -59 -13 -6 -6 9 -11 28 -9 3 1 11 -5 18
-13 13 -15 4 -39 -11 -30 -11 7 -12 -15 -1 -33 12 -18 132 -21 165 -3 32 17
34 37 6 70 -23 28 -73 39 -146 31z"/>
<path d="M6850 11145 c0 -7 82 -45 97 -45 7 0 13 -7 13 -16 0 -11 -5 -14 -17
-9 -10 4 -32 11 -49 15 -18 4 -37 11 -43 15 -15 8 -104 9 -131 0 -11 -4 -20
-14 -20 -24 0 -19 -35 -61 -50 -61 -6 0 -10 -4 -10 -9 0 -11 58 2 87 19 12 8
26 24 32 37 11 24 26 30 36 14 3 -6 -4 -19 -15 -29 -19 -18 -19 -20 -4 -26 9
-3 22 -2 28 3 7 6 18 6 26 1 7 -4 24 -4 37 1 19 7 30 2 65 -31 24 -23 51 -40
65 -40 12 0 23 -4 23 -9 0 -23 116 -38 147 -18 14 9 9 62 -8 83 -43 52 -309
163 -309 129z"/>
<path d="M6456 10470 c6 -75 4 -88 -13 -109 -14 -17 -30 -24 -59 -25 -34 -1
-39 2 -42 22 -7 49 -118 67 -177 28 -35 -23 -33 -48 3 -44 24 3 27 0 28 -27 1
-42 59 -100 115 -116 24 -7 52 -19 62 -27 15 -14 17 -13 17 11 0 14 -5 27 -12
29 -7 3 -9 14 -5 30 5 18 22 33 60 51 52 26 77 61 77 109 0 27 -33 122 -47
138 -12 13 -13 3 -7 -70z"/>
<path d="M6734 9340 c-7 -33 -18 -39 -28 -15 -8 22 -36 18 -36 -5 0 -24 -19
-26 -46 -5 -26 20 -36 19 -78 -10 -20 -13 -43 -22 -51 -19 -8 4 -27 -1 -41
-11 -19 -12 -29 -14 -37 -6 -16 16 -48 13 -61 -5 -6 -8 -19 -16 -28 -18 -10
-1 -26 -10 -38 -21 -11 -10 -20 -15 -20 -11 0 3 -11 -1 -24 -9 -17 -12 -30
-14 -43 -7 -24 12 -103 22 -103 13 0 -12 35 -41 48 -41 7 0 12 -4 12 -10 0 -5
11 -10 24 -10 14 0 28 -5 32 -11 3 -6 16 -8 28 -5 13 3 32 -2 46 -11 13 -9 42
-20 64 -24 23 -4 61 -12 86 -18 27 -5 51 -6 62 0 9 5 34 9 55 9 57 0 79 9 91
35 12 25 59 61 68 52 3 -3 0 -15 -6 -27 -10 -18 -9 -24 1 -31 11 -6 10 -12 -5
-28 -15 -16 -16 -23 -5 -42 l12 -23 8 22 c5 12 15 25 23 28 8 3 19 19 25 35
11 31 31 40 31 13 0 -8 5 -12 11 -9 7 5 9 -7 7 -36 -2 -25 -9 -44 -17 -47 -8
-3 -11 0 -8 6 4 5 1 14 -6 20 -9 8 -16 0 -29 -29 l-16 -39 31 -14 c55 -24 64
-25 87 -9 18 13 27 14 41 5 21 -13 59 -15 74 -4 6 4 15 21 21 39 11 30 10 32
-17 43 -24 10 -33 10 -54 -4 -16 -10 -34 -14 -47 -10 -11 3 -16 9 -11 13 17
10 35 51 23 51 -18 0 -11 27 14 51 26 25 20 49 -11 49 -12 0 -13 -3 -3 -14 10
-13 7 -15 -17 -13 -28 3 -28 3 -24 62 3 59 17 85 34 62 6 -8 7 -6 3 6 -3 10
-6 23 -6 29 0 6 -9 8 -20 5 -13 -3 -24 1 -30 14 -8 14 -22 19 -51 19 -36 0
-40 -3 -45 -30z"/>
<path d="M8258 9068 c-2 -13 1 -63 5 -113 9 -102 4 -357 -7 -395 -5 -14 -10
-37 -13 -52 -3 -16 -8 -28 -12 -28 -4 0 -15 -24 -26 -52 -10 -29 -24 -62 -32
-73 -7 -11 -13 -26 -13 -35 0 -8 -9 -26 -20 -40 -11 -14 -20 -35 -20 -47 0
-12 -8 -30 -18 -40 -11 -10 -21 -25 -25 -34 -3 -9 -19 -19 -36 -22 -21 -4 -32
-14 -36 -30 -6 -22 -11 -23 -101 -25 -67 -1 -93 2 -88 10 5 8 -2 9 -22 4 -16
-4 -29 -8 -29 -9 0 -16 -28 -43 -49 -48 -16 -4 -36 -15 -45 -23 -25 -23 -107
-47 -154 -45 -23 1 -55 -1 -72 -4 -33 -8 -90 4 -90 19 1 12 -39 32 -84 43 -20
5 -72 19 -116 31 -44 12 -96 26 -115 31 -19 4 -54 17 -77 29 -23 11 -47 20
-53 20 -9 0 -116 73 -130 89 -3 3 -27 21 -55 40 -88 60 -113 92 -183 228 -37
73 -70 133 -74 133 -5 0 -8 -14 -8 -30 0 -17 -6 -43 -14 -58 -7 -15 -16 -58
-19 -97 -3 -38 -13 -133 -23 -210 -24 -196 -21 -467 5 -499 6 -7 8 -16 5 -19
-8 -8 21 -179 46 -271 21 -77 19 -90 -13 -81 -17 5 -19 4 -7 -4 8 -6 22 -8 31
-5 20 6 34 -47 16 -58 -14 -8 -39 11 -31 23 3 5 -2 9 -11 9 -9 0 -13 -4 -10
-10 9 -15 -2 -12 -24 6 -11 10 -17 22 -15 29 5 12 -71 13 -83 1 -4 -3 -17 -6
-29 -6 -25 0 -37 -16 -48 -64 -6 -22 -4 -27 7 -23 11 4 18 -7 27 -39 7 -24 17
-47 21 -50 5 -3 9 -9 9 -15 0 -5 -9 -4 -21 3 -24 15 -71 101 -65 120 3 7 7 25
10 41 4 15 13 27 21 27 8 0 15 5 15 11 0 6 -7 9 -15 5 -9 -3 -15 0 -15 9 0 8
-4 15 -10 15 -5 0 -10 -18 -10 -41 0 -22 -5 -49 -10 -59 -6 -12 -7 -62 -3
-137 5 -65 5 -138 1 -163 -3 -25 -9 -99 -13 -165 -6 -102 -11 -125 -30 -155
-13 -19 -36 -64 -50 -100 -15 -36 -31 -74 -35 -85 -5 -11 -12 -38 -15 -60 -4
-22 -16 -67 -27 -100 -11 -32 -26 -110 -34 -172 -8 -62 -22 -136 -30 -165 -24
-84 -54 -207 -68 -283 -7 -39 -18 -79 -23 -90 -15 -28 -33 -109 -33 -145 0
-17 -4 -30 -9 -30 -6 0 -13 -21 -17 -47 -4 -27 -10 -58 -15 -70 -4 -12 -13
-70 -20 -129 -6 -59 -20 -132 -30 -162 -10 -30 -19 -64 -19 -74 0 -18 1 -18
16 -4 21 21 38 20 29 -1 -13 -31 -33 -116 -44 -188 -6 -38 -25 -113 -42 -165
-22 -66 -32 -121 -35 -180 -5 -92 -45 -356 -70 -459 -11 -43 -13 -82 -9 -122
4 -34 2 -72 -4 -91 -13 -42 -34 -180 -67 -451 -14 -116 -32 -259 -40 -317 -7
-58 -20 -167 -28 -243 -15 -138 -25 -170 -53 -165 -11 2 -16 -8 -19 -36 -2
-21 -10 -48 -17 -60 -8 -12 -19 -57 -26 -101 -6 -44 -15 -111 -21 -150 -11
-79 -37 -142 -61 -148 -13 -4 -15 2 -9 35 8 44 -3 59 -22 28 -20 -32 -36 -24
-43 23 -4 23 -11 49 -15 58 -5 8 -5 21 0 29 11 18 3 31 -15 24 -15 -6 -29 -60
-45 -184 -7 -47 -16 -87 -20 -90 -5 -3 -10 -46 -11 -95 -1 -50 -6 -101 -12
-115 -5 -14 -9 -44 -8 -66 1 -23 -2 -45 -8 -49 -6 -3 -11 -14 -11 -24 0 -10
-9 -38 -19 -62 -11 -24 -22 -71 -25 -104 -2 -33 -11 -78 -20 -100 -8 -22 -22
-78 -31 -125 -9 -47 -21 -105 -26 -130 -5 -25 -13 -72 -18 -106 -5 -34 -13
-70 -18 -80 -9 -17 -26 -114 -24 -139 1 -5 3 -32 6 -60 7 -77 -22 -125 -98
-160 -66 -30 -123 -84 -132 -126 -3 -15 -15 -35 -26 -45 -11 -10 -19 -30 -19
-51 0 -23 -5 -33 -15 -33 -8 0 -15 -7 -15 -15 0 -25 -49 -38 -76 -20 -13 8
-35 15 -49 15 -14 0 -25 4 -25 10 0 5 -7 7 -16 3 -22 -8 53 -79 123 -118 29
-15 74 -47 100 -71 27 -23 71 -55 100 -69 28 -15 59 -35 69 -46 17 -19 59 -19
2267 -19 l2250 0 -6 110 c-5 105 -5 111 19 146 14 20 31 43 39 50 7 8 16 19
18 26 4 9 8 10 14 2 8 -11 75 -44 89 -44 4 0 18 -10 31 -22 25 -23 30 -25 108
-38 57 -9 65 -6 65 21 0 13 -11 25 -32 34 -18 7 -44 22 -58 33 -16 12 -49 21
-88 25 -70 7 -101 31 -102 76 0 26 64 127 90 141 8 4 44 32 80 60 36 29 84 61
107 71 44 20 88 66 105 108 16 39 37 133 38 162 0 18 17 42 55 80 76 73 138
155 159 209 12 29 20 84 24 153 4 87 8 110 21 115 9 3 22 12 29 19 8 8 38 13
74 13 l61 0 66 68 c36 37 88 85 114 106 46 37 48 38 62 20 11 -15 15 -16 16
-4 1 8 1 19 0 23 -2 10 50 55 93 81 49 30 98 75 139 130 38 49 39 52 34 116
-3 36 -11 94 -18 130 -7 36 -13 85 -13 110 -1 45 -1 45 47 61 26 8 45 18 42
21 -3 3 1 18 9 33 11 20 12 34 5 47 -16 30 -13 90 7 132 29 60 45 65 95 32 23
-16 59 -31 81 -33 21 -3 38 -11 38 -18 0 -7 6 -15 14 -18 20 -8 24 -48 8 -74
-29 -47 40 -111 85 -78 15 11 15 17 1 75 l-15 62 31 19 c17 10 37 19 44 19 19
0 14 40 -5 47 -53 20 -35 103 22 103 10 0 33 10 53 22 40 25 103 26 139 3 32
-21 29 -42 -9 -65 -75 -44 -75 -54 2 -87 33 -15 60 -30 60 -35 0 -5 5 -6 10
-3 13 8 14 2125 1 2125 -5 0 -12 -8 -14 -17 -4 -16 -5 -16 -6 1 -1 11 -6 16
-15 13 -7 -3 -23 1 -35 9 -29 21 -27 65 4 94 14 13 25 32 25 42 0 10 5 18 10
18 6 0 10 12 11 28 0 15 3 21 6 14 2 -6 9 -10 14 -6 12 7 12 94 -1 94 -5 0
-10 -6 -10 -13 0 -11 -25 -14 -66 -9 -14 2 -34 47 -34 77 0 31 43 81 75 87 14
3 25 1 25 -3 0 -5 5 -9 10 -9 6 0 10 55 10 145 0 90 -4 145 -10 145 -5 0 -10
-7 -10 -16 0 -8 -4 -12 -10 -9 -5 3 -10 2 -10 -3 0 -5 -18 -14 -41 -21 -23 -7
-47 -15 -54 -17 -7 -3 -18 8 -25 28 -24 65 -92 254 -116 325 l-25 71 23 25
c35 37 63 42 88 15 19 -20 21 -30 15 -81 -5 -52 -4 -60 17 -77 27 -22 48 -26
48 -7 0 6 11 25 23 41 26 32 47 29 48 -7 0 -21 1 -21 9 -2 7 15 9 9 10 -25 0
-35 3 -41 11 -28 15 26 7 284 -8 281 -7 -2 -13 2 -13 7 0 6 -7 10 -16 10 -9 0
-29 9 -45 21 -21 15 -41 19 -76 17 -46 -3 -49 -5 -73 -50 -20 -39 -53 -68 -76
-68 -6 0 -44 63 -44 73 0 13 64 36 75 27 18 -15 35 5 44 54 5 27 18 56 30 68
32 29 22 42 -42 53 -71 12 -125 51 -112 81 4 10 9 25 11 33 1 8 15 25 29 39
24 22 25 25 10 41 -8 10 -34 23 -58 30 -61 18 -127 45 -127 53 0 4 -6 13 -13
20 -7 7 -27 56 -44 108 l-30 95 29 36 c17 21 32 54 35 76 5 39 4 41 -40 62
-42 21 -65 50 -54 69 9 13 -20 43 -49 51 -35 9 -74 68 -54 81 25 15 14 62 -20
89 -51 41 -110 103 -110 117 0 7 -4 14 -8 16 -4 2 -32 48 -61 102 -74 139
-155 258 -209 307 -26 23 -79 72 -117 109 -93 88 -186 159 -265 206 -36 20
-97 59 -137 86 -40 26 -139 82 -220 124 -81 42 -154 81 -161 87 -23 19 -127
67 -144 67 -10 0 -17 5 -15 12 1 6 -7 14 -18 16 -11 2 -27 10 -35 17 -8 7 -37
18 -64 24 -56 14 -150 59 -192 93 -16 13 -41 29 -55 37 -14 7 -51 37 -81 66
-31 29 -81 64 -111 79 -55 26 -242 76 -284 76 -14 0 -24 8 -28 23 -21 67 -131
290 -154 311 -19 17 -20 17 -23 -6z m-1632 -1936 c1 -27 -4 -36 -22 -43 -29
-11 -31 -29 -4 -36 26 -7 26 -23 1 -23 -29 0 -35 -17 -11 -37 27 -23 25 -33
-6 -33 -20 0 -25 -4 -20 -16 3 -9 6 -19 6 -24 0 -5 8 -11 18 -13 10 -3 5 -5
-12 -6 -25 -1 -28 -4 -24 -26 3 -14 -1 -30 -8 -36 -7 -6 -10 -17 -7 -25 3 -9
1 -25 -5 -37 -6 -12 -13 -35 -17 -50 -9 -45 -27 -21 -19 27 4 22 9 52 11 66 3
14 7 48 9 75 11 125 24 197 43 248 9 23 16 28 39 25 23 -3 27 -8 28 -36z"/>
<path d="M6325 8934 c-27 -7 -77 -20 -110 -28 -98 -24 -334 -114 -424 -162
-46 -24 -89 -44 -97 -44 -8 0 -14 -4 -14 -10 0 -5 -9 -10 -19 -10 -29 0 -63
-49 -56 -78 4 -15 2 -21 -5 -17 -10 6 -41 -57 -49 -97 -1 -5 -44 -51 -96 -104
-92 -93 -225 -281 -225 -317 0 -18 -36 -97 -74 -165 -20 -35 -23 -48 -15 -69
8 -23 8 -24 -6 -13 -11 9 -15 9 -15 1 0 -20 27 -41 44 -35 10 4 16 1 16 -7 0
-8 -42 -41 -93 -75 -120 -80 -118 -79 -127 -64 -6 9 -13 4 -24 -18 -17 -32
-68 -66 -89 -59 -7 2 3 11 21 21 34 18 38 26 21 43 -13 13 0 79 37 188 13 39
26 79 28 90 2 11 16 56 30 100 30 92 35 168 11 159 -8 -4 -15 -10 -15 -15 0
-5 -19 -40 -42 -77 -69 -112 -95 -171 -128 -297 -17 -66 -38 -127 -46 -136 -7
-8 -14 -26 -14 -40 0 -26 -45 -76 -54 -60 -4 5 -2 29 4 53 13 58 12 67 -5 44
-9 -12 -15 -42 -15 -72 0 -47 -3 -54 -35 -79 -36 -29 -37 -45 -4 -45 12 0 19
7 19 19 0 25 20 38 31 20 7 -11 12 -9 24 9 16 21 45 31 45 14 0 -9 -75 -72
-85 -72 -4 0 -39 -26 -78 -59 -100 -81 -211 -200 -233 -250 -10 -22 -22 -41
-26 -41 -13 0 12 275 37 410 8 41 26 158 40 260 14 102 35 235 46 296 21 112
23 203 4 206 -16 2 -72 -100 -111 -202 -88 -232 -105 -276 -119 -300 -41 -70
-48 -98 -57 -245 -5 -82 -7 -259 -6 -393 2 -133 0 -242 -3 -242 -13 0 -21 214
-14 368 6 127 4 179 -10 267 -22 145 -47 202 -70 165 -4 -6 -15 -77 -26 -158
-10 -81 -23 -168 -29 -193 -5 -26 -12 -95 -15 -155 -4 -60 -10 -156 -14 -214
-3 -58 -2 -163 3 -235 5 -71 10 -164 10 -206 1 -50 6 -82 16 -93 13 -16 12
-20 -13 -38 -22 -16 -27 -27 -27 -61 1 -45 17 -130 45 -240 10 -37 15 -70 12
-73 -3 -3 -14 0 -26 7 -27 18 -33 9 -21 -32 6 -18 10 -51 10 -71 0 -20 7 -63
15 -95 17 -65 20 -284 3 -294 -6 -4 -5 -21 3 -48 12 -41 7 -63 -10 -45 -14 14
-57 124 -65 163 -5 29 -4 32 9 21 21 -17 29 -7 15 19 -11 22 -30 28 -30 11 0
-25 -19 -6 -42 43 -36 72 -37 81 -8 107 14 12 19 18 11 14 -8 -4 -37 -7 -65
-6 -28 1 -57 -2 -65 -7 -17 -11 -5 -51 15 -51 16 0 19 -26 3 -35 -9 -6 -4
-253 6 -264 2 -2 -2 -19 -10 -38 -14 -32 -13 -39 10 -95 30 -73 29 -68 9 -68
-25 0 -12 -80 15 -99 12 -7 21 -21 21 -30 0 -9 5 -23 10 -31 7 -10 8 1 4 35
-5 47 -5 49 11 30 20 -25 49 -121 41 -140 -9 -24 -34 -6 -56 41 -12 24 -26 44
-30 44 -5 0 -14 17 -20 38 -16 49 -30 63 -89 92 -56 28 -101 87 -101 132 0 35
-18 36 -72 6 -47 -27 -68 -62 -68 -114 0 -38 -42 -114 -63 -114 -5 0 -20 -11
-32 -24 -17 -19 -38 -26 -84 -32 -77 -8 -91 -26 -62 -81 10 -21 36 -58 57 -82
22 -24 41 -53 44 -65 3 -11 12 -22 20 -22 8 -1 23 -2 33 -3 24 -1 25 -71 0
-71 -14 0 -14 -2 2 -20 18 -20 17 -20 -13 -20 -44 0 -40 -15 8 -34 48 -19 96
-21 104 -3 3 9 9 7 19 -6 10 -12 43 -23 102 -32 77 -13 120 -25 87 -25 -6 0
-9 -7 -6 -15 4 -8 1 -15 -5 -15 -7 0 -3 -16 9 -40 11 -21 20 -46 20 -54 0 -16
-94 -104 -125 -116 -11 -4 -40 -23 -64 -42 -58 -43 -91 -66 -117 -77 -11 -5
-42 -23 -67 -39 -29 -18 -56 -28 -67 -25 -11 3 -20 0 -20 -6 0 -6 7 -11 16
-11 8 0 13 -4 9 -9 -13 -22 12 -22 200 3 106 14 247 27 251 23 3 -2 -13 -7
-36 -11 -31 -5 -40 -11 -40 -26 0 -11 7 -20 15 -20 24 0 17 -20 -10 -30 -17
-6 -27 -20 -32 -40 -3 -17 -10 -33 -14 -36 -5 -3 -9 -12 -9 -21 0 -21 47 -9
69 18 9 12 33 23 58 26 41 5 42 5 48 -30 6 -28 3 -42 -14 -63 -12 -15 -21 -31
-21 -36 0 -5 -22 -41 -49 -81 -55 -82 -68 -117 -43 -117 10 0 30 11 46 25 41
36 49 31 26 -15 -11 -21 -20 -45 -20 -52 0 -17 -51 -68 -69 -68 -38 -1 -113
-103 -95 -131 7 -13 38 -11 52 3 8 8 14 4 22 -18 l11 -29 21 28 c25 34 68 57
106 57 51 0 126 31 159 66 34 37 57 43 67 19 14 -37 -47 -128 -130 -194 -21
-16 -64 -87 -64 -103 0 -14 15 -9 40 15 42 38 118 97 124 97 16 0 3 -35 -24
-62 -17 -16 -30 -33 -30 -36 -1 -4 -21 -27 -46 -52 -69 -68 -105 -151 -71
-163 6 -2 19 -1 28 4 8 4 74 20 145 34 71 14 139 29 152 32 32 8 27 -12 -7
-27 -16 -6 -32 -21 -35 -33 -3 -12 -16 -33 -29 -47 -21 -23 -55 -88 -78 -147
-13 -34 -36 -28 -43 11 -8 40 -27 59 -50 50 -19 -7 -13 -38 12 -67 8 -9 13
-20 9 -23 -8 -9 -27 5 -27 20 0 14 -74 38 -85 28 -10 -10 -5 -47 10 -75 13
-25 13 -31 -2 -54 -13 -20 -22 -24 -45 -19 -20 4 -28 1 -28 -8 0 -23 -23 -24
-85 -5 -66 21 -125 25 -125 9 0 -6 6 -10 13 -8 6 1 26 -6 44 -15 18 -9 40 -17
50 -17 20 -1 94 -39 78 -40 -66 -8 -110 -25 -134 -54 -7 -8 -26 -18 -42 -21
-16 -4 -37 -17 -48 -31 -10 -13 -27 -24 -36 -24 -31 0 -149 -39 -183 -60 -30
-18 -33 -24 -27 -52 5 -23 4 -29 -5 -23 -20 12 -2 -46 19 -67 10 -9 23 -37 30
-61 6 -25 15 -49 21 -52 5 -3 10 -14 10 -25 0 -27 28 -34 32 -8 2 12 9 24 17
26 11 4 13 -4 7 -38 -8 -50 11 -52 28 -2 21 61 63 71 46 10 -11 -35 -4 -54 14
-39 6 5 35 13 64 17 46 6 52 9 52 30 0 28 15 31 29 6 9 -15 10 -15 11 -1 0 9
14 22 30 29 17 7 40 26 51 41 11 16 30 29 41 29 12 0 34 15 50 33 25 29 29 30
39 14 10 -16 13 -15 39 13 15 16 31 41 34 55 4 14 14 25 24 25 33 1 74 52 118
148 25 53 49 104 54 113 5 9 43 84 86 165 42 82 112 212 154 289 89 159 147
319 134 370 -4 16 -8 174 -9 350 -4 524 -38 998 -101 1420 -45 302 -80 775
-57 775 13 0 23 -71 23 -159 0 -87 10 -147 22 -129 4 7 5 161 2 342 -4 205 -2
431 6 600 14 306 17 322 99 403 24 24 44 43 46 41 1 -2 -2 -41 -6 -88 -21
-224 -29 -300 -38 -361 -8 -53 -13 -288 -9 -489 1 -76 0 -211 -1 -330 -1 -69
5 -251 13 -405 9 -154 13 -297 9 -318 -4 -28 -2 -37 8 -37 11 0 14 -26 15
-123 2 -145 30 -475 46 -532 6 -22 12 -67 14 -100 1 -33 5 -71 8 -85 11 -58
26 -146 26 -155 0 -5 6 -3 14 5 7 8 26 69 41 135 64 282 77 344 90 410 7 39
18 88 24 110 6 22 15 58 20 80 5 22 30 110 55 195 44 148 142 579 185 815 11
61 32 173 46 250 29 153 32 173 71 415 18 116 41 210 75 315 45 135 107 351
124 430 11 53 -11 14 -45 -78 -18 -48 -35 -86 -37 -83 -7 6 78 247 117 331 79
172 267 481 339 558 18 20 21 26 8 22 -30 -12 -19 19 21 61 81 82 107 102 120
88 19 -20 14 -51 -8 -57 -11 -3 -20 -1 -20 5 0 6 -18 -8 -40 -31 -22 -22 -40
-45 -40 -50 0 -5 -23 -44 -52 -87 -43 -67 -74 -126 -148 -289 -20 -44 -108
-282 -114 -310 -6 -26 -6 -28 7 -15 8 8 34 53 58 100 24 47 79 146 123 220 93
159 176 318 176 337 0 17 42 83 53 83 5 0 5 -10 1 -22 -5 -13 -7 -47 -6 -76 1
-29 -2 -51 -6 -49 -4 3 -8 -11 -10 -31 -1 -20 -11 -45 -21 -57 -35 -38 -91
-136 -183 -318 -150 -293 -274 -560 -228 -487 5 8 11 12 15 9 3 -3 -9 -39 -26
-80 -88 -212 -181 -542 -250 -886 -4 -23 -19 -89 -33 -145 -14 -57 -43 -186
-66 -288 -22 -102 -45 -202 -50 -222 -13 -47 -71 -334 -115 -568 -19 -102 -39
-205 -45 -230 -5 -25 -21 -112 -35 -193 -14 -82 -32 -181 -40 -220 -14 -66
-13 -104 1 -61 3 10 10 30 14 44 30 85 215 714 239 810 6 25 40 153 75 285
118 437 303 1160 370 1445 58 244 145 511 218 669 49 105 128 305 128 323 0
18 51 118 61 118 4 0 10 -24 14 -52 4 -29 14 -70 21 -92 14 -39 14 -41 -32
-131 -28 -55 -45 -101 -42 -116 3 -21 8 -16 36 36 18 33 38 77 44 97 14 46 23
48 32 7 4 -23 -3 -50 -34 -114 -56 -118 -86 -221 -105 -360 -9 -66 -22 -138
-30 -160 -25 -75 -55 -180 -65 -230 -24 -120 -24 -111 -7 -95 15 15 89 209
125 330 11 36 32 120 47 185 48 219 88 370 98 377 8 5 8 13 0 30 -15 31 -21
50 -45 138 -17 61 -21 106 -21 240 -1 235 -2 229 53 342 45 92 68 124 38 51
-28 -69 -47 -130 -48 -150 0 -12 -5 -25 -11 -28 -9 -6 -8 -61 6 -265 1 -14 5
-32 9 -41 4 -9 6 -20 5 -25 -7 -26 15 -123 28 -128 8 -3 11 -11 8 -17 -8 -12
10 -59 41 -110 13 -20 20 -40 17 -43 -4 -3 -1 -6 5 -6 7 0 12 -9 12 -21 0 -12
8 -23 20 -26 11 -3 20 -12 20 -21 0 -13 3 -13 12 -4 9 9 10 15 2 20 -6 4 -14
17 -18 30 -4 12 -12 22 -17 22 -5 0 -9 5 -9 11 0 6 -12 34 -26 63 -47 92 -64
157 -70 272 -5 77 -3 128 6 165 17 68 48 139 62 139 5 0 8 6 5 14 -3 8 -2 27
3 43 8 27 9 28 16 5 6 -22 7 -22 26 -6 10 10 17 26 16 35 -2 10 6 25 17 34 19
14 19 16 3 29 -10 7 -18 19 -18 26 0 9 -6 7 -19 -6 -10 -10 -17 -22 -15 -26 3
-4 -1 -10 -6 -13 -18 -11 0 62 28 114 14 25 40 69 59 98 18 28 33 56 33 62 0
6 21 36 47 68 56 69 58 71 105 107 34 25 88 110 77 120 -2 2 -26 -2 -54 -10z
m-300 -219 c-22 -20 -65 -53 -95 -75 -30 -21 -68 -51 -85 -65 -16 -15 -59 -51
-95 -80 -36 -29 -75 -63 -86 -76 -61 -68 -156 -207 -189 -276 -54 -115 -69
-143 -77 -143 -3 0 2 25 13 56 11 31 18 58 16 60 -9 9 -81 -93 -124 -177 -14
-28 -53 -67 -53 -53 1 11 58 124 133 263 32 58 57 110 57 116 0 19 105 140
141 163 31 19 64 43 204 149 171 129 342 227 240 138z m-895 -1040 c0 -3 -6
-16 -14 -28 -25 -38 -94 -250 -116 -358 -12 -57 -24 -107 -25 -110 -5 -6 -41
-176 -60 -274 -43 -231 -98 -481 -107 -490 -7 -7 -8 36 -3 140 4 83 8 206 9
275 2 105 6 133 24 173 14 31 20 58 16 73 -13 52 67 344 124 454 39 76 54 94
102 126 35 23 50 29 50 19z"/>
<path d="M5298 8489 c-10 -5 -18 -15 -18 -22 -1 -7 -19 -25 -40 -42 -21 -16
-39 -37 -40 -46 0 -9 -7 -22 -15 -29 -9 -7 -14 -19 -11 -25 2 -7 -11 -43 -30
-81 -18 -38 -34 -74 -34 -80 0 -6 -17 -49 -38 -95 -22 -46 -47 -118 -57 -159
-10 -41 -24 -95 -31 -119 -8 -25 -14 -53 -14 -62 0 -10 -9 -23 -20 -29 -11 -6
-24 -19 -30 -30 -9 -17 -8 -19 7 -13 10 3 23 11 28 17 6 6 24 18 40 26 16 9
31 25 33 35 2 11 11 27 19 36 8 10 18 44 23 77 13 97 53 197 115 290 14 22 35
64 46 93 12 30 36 76 55 102 19 26 32 53 28 58 -3 6 4 21 17 35 19 20 21 27
11 49 -13 27 -19 29 -44 14z"/>
<path d="M4602 7937 c-25 -69 -54 -196 -68 -302 -41 -293 -40 -275 -16 -275
21 0 82 53 82 72 0 7 9 42 20 76 14 45 20 92 20 157 0 51 5 116 12 144 9 40 9
62 -2 106 -15 63 -31 70 -48 22z"/>
<path d="M5938 7573 c7 -12 4 -28 -10 -55 -11 -20 -18 -43 -16 -50 3 -7 13 6
23 30 34 76 49 37 19 -48 -9 -25 -23 -79 -31 -120 -8 -41 -18 -95 -23 -120
-20 -105 -2 -126 24 -27 9 34 25 94 36 134 10 40 21 91 23 113 2 22 7 44 11
47 21 21 25 -41 20 -277 -6 -229 6 -534 21 -549 10 -9 24 15 29 49 3 19 10 62
17 95 6 33 12 155 13 270 1 176 -2 219 -17 268 -10 32 -15 62 -12 68 4 5 -6
26 -22 47 -16 20 -44 61 -63 89 -19 29 -39 53 -43 53 -4 0 -4 -8 1 -17z"/>
<path d="M5360 6190 c-6 -10 -9 -23 -8 -27 1 -4 -9 -39 -24 -78 -14 -38 -31
-90 -39 -115 -7 -25 -21 -65 -32 -90 -18 -45 -30 -83 -69 -235 -11 -44 -29
-97 -39 -117 -11 -21 -19 -53 -19 -72 0 -20 -6 -53 -14 -73 -50 -133 -134
-446 -237 -886 -18 -75 -38 -142 -46 -148 -7 -6 -13 -19 -13 -28 0 -26 -51
-158 -184 -481 -31 -74 -56 -142 -56 -151 0 -8 -11 -38 -25 -65 -14 -27 -25
-56 -25 -64 0 -8 -20 -55 -44 -105 -24 -49 -54 -112 -67 -140 -13 -27 -39 -75
-59 -105 -36 -55 -170 -319 -170 -336 0 -4 -15 -42 -34 -84 -19 -41 -50 -113
-69 -160 -20 -47 -65 -146 -100 -220 -35 -74 -68 -146 -72 -160 -4 -14 -18
-39 -31 -56 -13 -17 -24 -38 -24 -47 0 -8 -5 -17 -11 -19 -7 -2 -10 -11 -7
-18 4 -11 11 -6 24 16 10 17 33 41 51 54 18 12 33 31 33 42 0 10 24 51 53 91
75 102 157 226 157 237 0 6 5 10 10 10 6 0 10 5 10 11 0 6 18 38 40 70 22 32
40 61 40 64 0 9 51 85 97 147 24 31 43 61 43 66 0 6 4 12 8 14 5 2 28 31 51
66 24 35 45 62 47 60 2 -3 -17 -46 -42 -97 -66 -136 -53 -181 26 -86 25 29 48
54 51 54 4 1 3 -16 -1 -37 -7 -38 -37 -91 -52 -92 -4 0 -5 -14 -1 -32 4 -22 3
-29 -5 -24 -17 10 -36 -37 -28 -69 5 -20 11 -25 26 -20 22 7 25 -2 10 -25 -6
-10 -10 -11 -10 -2 0 6 -4 12 -9 12 -4 0 -6 -11 -4 -24 6 -29 -16 -46 -29 -22
-10 17 -38 22 -38 7 0 -21 13 -41 27 -41 13 0 13 -2 2 -17 -8 -9 -12 -25 -11
-36 2 -11 -1 -23 -6 -26 -6 -3 -13 -24 -17 -46 -6 -33 -5 -38 6 -27 34 32 69
-2 50 -49 -17 -40 -35 -57 -79 -75 -42 -16 -68 -46 -58 -63 3 -5 -2 -15 -11
-22 -14 -13 -16 -11 -11 19 5 38 -8 41 -46 11 -33 -26 -45 -54 -58 -139 -14
-85 -11 -182 8 -245 8 -28 14 -62 14 -75 0 -14 2 -41 5 -60 4 -27 -1 -46 -25
-85 -16 -27 -30 -46 -30 -42 0 5 -7 1 -16 -7 -25 -26 -54 -20 -54 11 0 14 -10
40 -23 57 -13 17 -27 39 -30 49 -4 10 -13 17 -20 15 -15 -6 -22 -304 -7 -313
6 -3 10 -23 10 -44 0 -71 12 -131 26 -131 9 0 14 -13 15 -37 3 -74 5 -92 12
-99 4 -4 7 -2 7 4 0 7 4 12 8 12 10 0 43 -56 37 -62 -3 -3 1 -20 9 -39 7 -19
11 -40 9 -46 -3 -7 1 -13 7 -13 6 0 9 -8 6 -18 -5 -13 0 -18 20 -20 33 -3 50
-12 36 -21 -7 -4 -5 -13 4 -26 10 -13 17 -16 22 -9 10 16 51 -1 58 -23 3 -10
10 -26 15 -35 5 -10 9 -30 9 -45 l0 -28 24 28 c13 15 31 27 40 27 14 0 15 16
12 143 -2 78 -7 150 -11 159 -3 9 -2 25 4 36 8 16 6 25 -9 45 -24 31 -21 100
11 222 11 44 23 91 26 105 3 14 10 30 15 37 5 7 5 14 0 17 -9 5 -46 -32 -96
-95 l-18 -24 7 25 c4 14 19 45 33 70 51 90 92 173 92 185 0 6 10 20 21 31 12
10 26 30 32 44 l11 25 4 -33 c2 -18 -4 -54 -12 -80 -17 -49 -28 -195 -15 -187
20 13 27 -39 33 -230 13 -426 24 -477 81 -365 35 69 51 120 70 220 3 14 9 36
14 50 5 14 15 57 21 95 6 39 18 99 25 135 8 36 19 99 25 140 6 41 17 109 25
150 8 41 19 111 25 155 16 128 49 379 70 525 10 74 24 178 30 230 6 52 15 120
20 150 16 90 39 240 50 324 5 43 19 108 29 145 11 36 22 110 25 163 2 54 7
102 10 107 3 4 17 69 31 142 14 74 28 148 31 164 3 17 10 59 14 95 5 36 15 99
24 140 17 88 47 252 52 295 3 17 9 57 14 90 6 33 17 116 26 185 8 69 22 175
30 235 8 61 19 160 24 220 6 61 15 137 20 171 6 33 10 121 10 195 0 74 4 150
9 169 5 19 12 109 15 200 2 91 9 177 15 193 6 15 10 49 10 75 -1 26 4 60 10
75 22 57 7 105 -19 57z m-876 -3976 c15 -125 16 -184 5 -205 -8 -16 -8 -23 0
-28 15 -9 6 -100 -14 -147 -8 -20 -15 -45 -15 -55 0 -10 -6 -22 -14 -26 -7 -4
-21 -23 -30 -40 -9 -18 -23 -33 -30 -33 -8 0 -16 -6 -19 -12 -2 -7 -8 -9 -13
-5 -5 4 -2 12 5 16 11 7 11 21 2 77 -6 38 -12 76 -12 84 -1 8 -7 22 -14 30
-19 23 -37 88 -30 109 6 21 -9 60 -28 73 -8 4 -7 15 2 34 18 41 130 192 149
203 25 14 49 -17 56 -75z"/>
<path d="M3123 4826 c-25 -12 -30 -32 -11 -38 7 -3 8 -9 3 -19 -5 -8 -8 -22
-7 -31 2 -12 -7 -19 -32 -24 -20 -3 -43 -3 -52 0 -9 3 -27 -3 -41 -14 -14 -11
-29 -17 -34 -14 -5 3 -9 -14 -9 -38 l0 -43 58 1 c89 1 98 7 106 64 4 28 10 50
15 50 11 0 28 40 36 84 8 38 4 40 -32 22z"/>
<path d="M3157 4535 c-23 -33 -46 -190 -29 -207 8 -8 16 0 32 36 11 26 20 52
20 57 0 5 4 9 9 9 5 0 12 11 15 25 7 28 61 44 93 26 22 -11 73 -2 73 14 0 6
-16 10 -35 10 -21 1 -43 9 -59 24 -13 12 -41 25 -63 27 -32 4 -41 1 -56 -21z"/>
<path d="M3545 4493 c-62 -15 -89 -38 -195 -164 l-34 -41 38 16 c42 18 78 41
154 103 30 24 57 43 62 43 8 0 44 50 38 55 -2 1 -30 -4 -63 -12z"/>
<path d="M3220 3912 c0 -4 -15 -12 -32 -17 -31 -9 -33 -13 -36 -62 -2 -38 -7
-53 -18 -53 -7 0 -14 -5 -14 -11 0 -6 -9 -8 -21 -4 -15 5 -19 4 -15 -4 4 -6 0
-11 -9 -11 -8 0 -18 -6 -21 -14 -3 -8 -12 -12 -20 -9 -25 9 -51 -25 -58 -77
-6 -48 -19 -64 -29 -37 -3 6 -6 -3 -6 -21 -1 -32 0 -32 16 -16 11 11 18 13 21
5 2 -6 12 -11 23 -11 11 0 28 -6 39 -12 15 -10 22 -10 32 0 9 9 9 12 -4 12
-18 0 -28 20 -28 54 0 40 84 114 115 102 9 -3 17 0 19 7 31 105 49 158 57 162
12 8 12 25 -1 25 -5 0 -10 -4 -10 -8z"/>
<path d="M3560 3900 c-188 -41 -178 -36 -219 -100 -21 -32 -54 -93 -75 -136
-21 -44 -42 -87 -47 -97 -6 -10 -15 -59 -20 -109 -6 -50 -15 -101 -20 -115
-15 -40 -11 -73 9 -73 9 0 22 4 28 8 20 14 60 78 89 142 16 36 38 76 47 89 10
13 18 34 18 46 0 40 22 67 168 210 78 77 142 143 142 147 0 11 -24 9 -120 -12z"/>
<path d="M2911 3382 c-1 -120 2 -181 9 -177 6 3 11 18 11 33 1 24 3 23 9 -8
l7 -35 3 35 c2 25 4 29 7 13 5 -26 13 -29 31 -11 16 16 15 49 -3 72 -8 11 -15
28 -15 38 0 10 -4 18 -10 18 -13 0 -13 37 1 46 6 3 16 1 22 -5 18 -18 34 -13
39 14 5 26 2 28 -44 25 -19 -1 -28 3 -28 13 0 9 -5 17 -10 19 -6 2 -14 23 -19
48 -7 33 -9 -3 -10 -138z"/>
<path d="M3324 3143 c-3 -16 -10 -38 -15 -51 -5 -13 -9 -52 -9 -87 l0 -65 -24
12 c-42 19 -59 4 -51 -45 4 -23 11 -46 16 -52 5 -5 9 -17 9 -27 0 -28 16 -22
48 20 26 33 31 49 41 147 14 135 14 175 1 175 -5 0 -12 -12 -16 -27z"/>
<path d="M3696 1705 c-9 -13 -16 -44 -16 -69 0 -25 -4 -48 -10 -51 -5 -3 -10
-36 -10 -73 0 -85 11 -94 114 -91 40 1 78 -1 83 -4 13 -8 23 -57 12 -57 -4 0
-1 -12 7 -27 7 -16 14 -33 14 -39 0 -7 7 -15 16 -18 13 -5 14 -9 5 -20 -9 -11
-7 -15 11 -19 12 -4 23 -5 23 -4 12 26 35 121 35 143 -1 39 -33 109 -66 139
-35 32 -48 23 -29 -21 19 -47 5 -81 -26 -61 -34 21 -77 125 -74 182 2 52 -11
85 -32 85 -7 0 -13 7 -13 15 0 23 -26 18 -44 -10z"/>
</g>
</svg>
