<?xml version="1.0" standalone="no"?>
<!DOCTYPE svg PUBLIC "-//W3C//DTD SVG 20010904//EN"
 "http://www.w3.org/TR/2001/REC-SVG-20010904/DTD/svg10.dtd">
<svg version="1.0" xmlns="http://www.w3.org/2000/svg"
 width="900.000000pt" height="900.000000pt" viewBox="0 0 900.000000 900.000000"
 preserveAspectRatio="xMidYMid meet">
<metadata>
Created by potrace 1.10, written by Peter Selinger 2001-2011
</metadata>
<g transform="translate(0.000000,900.000000) scale(0.100000,-0.100000)"
fill="#4a90e2" stroke="none">
<path d="M4567 8350 c-19 -16 -41 -30 -50 -30 -18 0 -28 -46 -20 -95 6 -36 5
-37 -18 -29 -13 4 -35 7 -49 5 -45 -4 -124 -2 -148 4 -22 5 -24 4 -18 -20 7
-28 -5 -32 -49 -15 -29 11 -65 -2 -65 -23 0 -7 -13 -23 -30 -35 -32 -24 -39
-47 -16 -55 23 -9 -4 -88 -35 -101 -13 -6 -32 -19 -41 -28 -10 -10 -23 -18
-29 -18 -7 0 -17 -7 -23 -15 -6 -9 -23 -16 -36 -16 -14 -1 -44 -5 -67 -11 -61
-15 -135 6 -131 36 2 16 11 22 36 24 29 3 33 6 30 30 -4 39 -34 40 -73 2 -30
-29 -38 -31 -107 -33 -70 -1 -74 -2 -70 -22 2 -15 -5 -27 -25 -40 -15 -10 -32
-24 -36 -32 -5 -8 -16 -11 -27 -8 -13 4 -22 -1 -29 -14 -16 -28 -14 -38 8 -44
18 -4 71 -76 71 -96 0 -14 -41 0 -47 15 -7 19 -23 18 -23 -1 0 -8 5 -15 10
-15 6 0 10 -11 10 -24 0 -13 7 -29 16 -37 20 -17 80 -108 88 -136 4 -11 13
-27 21 -33 12 -10 16 -9 21 4 5 12 20 16 60 16 56 0 73 15 29 26 -34 8 -31 31
5 39 33 7 72 66 48 74 -21 7 -59 51 -53 61 3 6 15 10 26 10 27 0 76 26 117 61
18 16 44 29 57 29 19 0 25 5 25 23 0 37 97 95 140 84 11 -3 22 -1 25 3 3 5 30
16 59 24 30 9 56 22 59 29 10 28 73 47 153 48 44 0 91 1 105 1 30 1 78 -30 79
-51 0 -11 -12 -13 -60 -8 -48 5 -60 4 -60 -8 0 -25 -21 -28 -50 -7 -27 21 -28
21 -33 2 -7 -25 -45 -26 -86 -3 -29 17 -30 17 -58 -9 -28 -26 -103 -54 -135
-50 -10 1 -18 -2 -18 -8 0 -15 -64 -70 -82 -70 -21 0 -24 -25 -6 -37 15 -8
120 -25 157 -24 13 1 29 5 35 10 19 16 79 22 131 13 l50 -9 -40 -8 c-22 -4
-47 -14 -57 -22 -11 -10 -36 -14 -75 -13 -81 2 -83 2 -83 -15 0 -18 39 -35 78
-35 32 0 60 -16 49 -27 -4 -4 -28 -10 -53 -13 -47 -5 -60 -22 -24 -30 62 -15
-5 -43 -144 -61 -52 -7 -92 -17 -90 -21 3 -4 16 -8 29 -8 14 0 29 -9 35 -20 6
-11 18 -20 26 -20 10 0 -1 -18 -30 -47 -60 -63 -60 -76 0 -67 38 5 51 3 75
-15 34 -25 65 -28 131 -10 39 10 58 10 104 -1 45 -11 69 -11 129 -1 84 14 97
10 151 -44 18 -18 43 -37 56 -40 13 -4 48 -31 79 -59 30 -28 83 -75 117 -104
78 -67 84 -87 73 -251 -5 -69 -9 -157 -8 -196 0 -38 -3 -104 -8 -147 l-8 -76
32 -16 c19 -10 31 -24 31 -36 0 -25 35 -27 45 -3 3 10 9 46 12 82 5 55 11 68
40 97 18 19 37 34 41 34 13 0 41 -60 35 -76 -3 -9 -17 -28 -29 -42 -20 -21
-24 -35 -24 -93 0 -73 6 -81 34 -50 13 14 16 28 11 49 -6 28 -4 30 57 52 35
12 71 32 81 42 24 28 21 74 -8 123 l-24 42 24 11 c23 11 29 28 37 102 2 19 10
26 32 28 45 5 70 -5 89 -39 18 -33 23 -104 7 -114 -5 -3 -10 -18 -10 -33 0
-15 -19 -55 -42 -90 -24 -35 -48 -71 -53 -80 -6 -9 -27 -42 -47 -72 -27 -39
-40 -74 -48 -120 -16 -96 -22 -250 -10 -250 25 0 170 170 170 199 0 27 144
316 238 478 15 26 36 68 47 93 26 59 83 160 106 185 16 18 17 32 12 113 -3 52
-11 99 -18 105 -18 18 -25 96 -12 118 16 26 -14 75 -43 72 -13 -2 -19 1 -15 7
4 6 3 16 -3 23 -5 7 -8 41 -7 77 2 64 -23 159 -57 220 -35 63 -54 90 -60 90
-4 0 -26 32 -50 72 -43 73 -82 118 -152 176 -110 90 -366 161 -427 118 -26
-18 -69 -22 -69 -5 0 5 16 17 35 25 19 8 35 18 35 22 -1 14 -88 122 -116 144
-16 12 -59 48 -97 80 -37 32 -69 58 -72 58 -2 0 -20 -13 -38 -30z m13 -92 c0
-5 -4 -8 -10 -8 -5 0 -10 10 -10 23 0 18 2 19 10 7 5 -8 10 -18 10 -22z m165
-238 c-3 -5 -15 -10 -26 -10 -11 0 -17 5 -14 10 3 6 15 10 26 10 11 0 17 -4
14 -10z m-1184 -245 c-1 -15 -24 -12 -29 3 -3 9 2 13 12 10 10 -1 17 -7 17
-13z m1163 -351 c27 -11 19 -41 -15 -53 -17 -6 -36 -8 -41 -5 -5 3 -18 -2 -29
-12 -21 -19 -33 -15 -24 8 4 11 81 68 91 68 1 0 9 -3 18 -6z m-136 -147 c2
-12 -3 -17 -17 -17 -15 0 -21 6 -21 21 0 25 33 22 38 -4z m562 -683 c0 -8 -4
-14 -10 -14 -5 0 -10 9 -10 21 0 11 5 17 10 14 6 -3 10 -13 10 -21z"/>
<path d="M3868 7999 c-2 -7 -2 -24 0 -39 3 -24 7 -26 35 -21 35 8 47 28 20 38
-10 3 -25 12 -34 20 -13 11 -18 11 -21 2z"/>
<path d="M3376 7429 c-18 -17 -18 -22 -6 -59 8 -23 21 -50 29 -60 106 -129
129 -152 153 -157 15 -3 28 -14 31 -25 5 -16 9 -18 27 -8 11 6 29 8 40 5 29
-9 62 12 55 36 -4 12 -1 21 10 25 9 4 22 22 30 40 15 36 33 42 65 22 15 -9 22
-10 31 -1 14 14 3 33 -20 33 -27 0 -33 12 -15 31 13 15 14 24 4 53 -8 26 -8
40 0 56 16 29 8 34 -44 26 -32 -5 -47 -13 -51 -27 -4 -10 -12 -19 -20 -19 -22
0 -87 -72 -75 -83 17 -18 12 -27 -15 -27 -23 0 -24 2 -15 20 15 28 -4 60 -33
57 -17 -2 -23 4 -25 26 -4 29 -16 36 -26 12 -3 -9 -18 -15 -35 -15 -16 0 -31
-5 -33 -12 -3 -7 -9 -8 -18 -3 -10 6 -10 11 4 21 19 14 15 29 -12 43 -12 6
-23 3 -36 -10z m409 -39 c4 -6 -8 -10 -30 -10 -22 0 -34 4 -30 10 3 6 17 10
30 10 13 0 27 -4 30 -10z"/>
<path d="M5720 7173 c0 -22 17 -49 25 -41 8 8 -5 58 -16 58 -5 0 -9 -8 -9 -17z"/>
<path d="M4067 7082 c-43 -48 -2 -77 89 -62 83 14 159 4 270 -34 136 -47 164
-49 164 -13 0 43 -48 69 -218 119 -22 6 -44 6 -69 -3 -34 -11 -134 -8 -193 6
-18 5 -31 1 -43 -13z"/>
<path d="M3703 7064 c-26 -26 -26 -27 -8 -40 23 -17 87 -18 103 -2 20 20 14
37 -18 53 -39 20 -47 19 -77 -11z"/>
<path d="M4065 6914 c-26 -63 -19 -70 29 -30 24 20 49 36 55 36 24 0 9 18 -20
24 -47 9 -48 9 -64 -30z"/>
<path d="M4211 6927 c-18 -4 -31 -14 -31 -23 0 -11 6 -13 20 -9 12 4 27 1 35
-5 8 -7 26 -10 39 -8 18 4 33 -3 52 -23 15 -16 41 -33 58 -38 42 -13 106 -13
106 0 0 33 -60 98 -92 99 -9 0 -19 4 -23 10 -6 10 -119 9 -164 -3z"/>
<path d="M3724 6899 c-3 -6 -1 -16 5 -22 13 -13 42 0 49 21 5 15 -44 16 -54 1z"/>
<path d="M4030 6502 c0 -22 -30 -52 -52 -52 -9 0 -23 11 -32 25 -22 33 -78 35
-100 3 -14 -20 -13 -24 21 -62 37 -42 92 -78 105 -69 5 2 8 14 8 25 0 12 17
36 41 56 30 26 39 41 37 60 -4 30 -28 43 -28 14z"/>
<path d="M4022 6308 c2 -7 19 -21 37 -30 18 -9 42 -26 52 -37 22 -23 35 -26
44 -11 13 20 -24 60 -54 60 -16 0 -31 6 -35 15 -7 18 -49 21 -44 3z"/>
<path d="M3920 6221 c0 -12 49 -31 85 -34 24 -2 31 2 33 21 3 21 0 22 -57 22
-34 0 -61 -4 -61 -9z"/>
<path d="M4645 5860 c-4 -14 -15 -20 -35 -20 -39 0 -47 -18 -15 -30 41 -16 50
-12 63 23 14 40 15 47 3 47 -5 0 -13 -9 -16 -20z"/>
<path d="M4453 5844 c-3 -8 0 -21 6 -27 14 -14 44 2 49 27 5 22 -46 22 -55 0z"/>
<path d="M4185 5838 c-11 -7 -33 -13 -50 -15 -51 -4 -183 -40 -207 -57 -12 -9
-41 -16 -65 -16 -23 0 -45 -4 -48 -10 -12 -19 101 -54 260 -81 39 -7 95 -24
125 -40 30 -15 81 -30 113 -34 55 -7 60 -6 87 21 16 16 30 37 30 46 0 14 -8
16 -55 11 -45 -5 -56 -3 -61 11 -4 10 -1 28 6 41 14 26 7 45 -17 45 -12 0 -14
7 -9 35 6 31 4 36 -19 45 -34 13 -65 12 -90 -2z"/>
<path d="M5146 5635 c-4 -14 -4 -72 0 -128 8 -128 -4 -191 -62 -311 -35 -73
-52 -96 -84 -118 -36 -23 -45 -25 -82 -17 -38 9 -44 7 -115 -40 -72 -48 -77
-49 -131 -44 -32 3 -97 18 -147 34 -131 44 -150 49 -169 49 -58 0 -214 128
-266 219 -58 101 -68 88 -95 -126 -15 -123 -16 -157 -5 -260 6 -65 18 -147 25
-183 26 -129 28 -160 11 -160 -19 0 -20 -5 -6 -31 9 -16 7 -21 -13 -28 -13 -5
-27 -19 -30 -30 -6 -24 -35 -28 -43 -6 -3 8 3 26 15 41 11 14 18 30 15 35 -3
5 2 12 10 15 26 10 8 23 -25 19 -36 -5 -79 -30 -80 -48 -1 -6 0 -41 1 -77 0
-36 -4 -114 -9 -174 -9 -89 -15 -116 -35 -145 -25 -36 -58 -139 -77 -241 -17
-93 -69 -322 -84 -375 -13 -45 -31 -126 -65 -299 -7 -33 -13 -94 -15 -135 -1
-42 -7 -92 -13 -111 -27 -87 -43 -161 -52 -240 -5 -47 -14 -114 -20 -150 -6
-36 -17 -121 -25 -190 -8 -69 -17 -136 -21 -150 -3 -13 -12 -83 -21 -155 -15
-132 -21 -184 -43 -355 -8 -63 -21 -115 -39 -155 -16 -33 -32 -87 -36 -120 -8
-70 -39 -172 -60 -199 -14 -19 -15 -18 -15 17 0 30 -5 39 -22 46 -21 8 -24 4
-35 -30 -6 -22 -14 -65 -18 -97 -3 -31 -17 -100 -30 -152 -13 -52 -36 -149
-50 -215 -14 -66 -33 -149 -41 -185 -9 -36 -18 -100 -21 -144 -5 -63 -11 -84
-30 -107 -14 -16 -30 -29 -36 -29 -29 -1 -97 -85 -97 -121 0 -8 -9 -25 -21
-38 -16 -17 -27 -21 -50 -16 -42 9 -37 -14 9 -45 31 -21 104 -76 159 -120 8
-6 527 -10 1423 -10 l1410 0 0 68 c1 98 39 139 96 101 51 -33 58 -36 108 -48
49 -12 75 -4 62 17 -12 20 -116 72 -144 72 -35 0 -52 16 -52 49 0 31 107 135
163 158 45 18 87 90 87 149 0 30 9 45 59 97 75 80 83 96 91 191 8 87 15 96 73
96 32 0 46 8 90 51 29 28 68 58 87 68 19 9 51 32 70 51 19 20 49 47 65 60 46
38 75 80 75 109 0 14 -10 54 -22 89 -26 73 -21 89 33 107 36 13 37 17 23 95
-4 27 -1 42 13 58 l18 23 55 -28 c52 -27 55 -30 56 -68 1 -36 6 -54 35 -133
11 -30 59 -32 59 -2 0 11 -5 29 -12 40 -9 15 -9 24 1 43 11 20 11 28 -1 46
-12 20 -10 25 16 46 27 22 29 26 17 51 -11 25 -10 29 16 50 36 29 58 35 79 19
16 -11 15 -14 -4 -33 -12 -12 -22 -28 -22 -34 0 -15 60 -52 69 -43 3 4 8 41
12 83 9 101 0 1174 -10 1232 -4 25 -4 73 -1 105 7 59 -3 115 -21 115 -4 0 0
15 10 33 18 29 19 54 17 308 -2 152 -6 281 -10 287 -4 7 -20 12 -35 12 -20 0
-31 7 -39 25 -7 14 -24 30 -39 35 -16 6 -34 13 -42 16 -11 3 -11 8 -3 16 8 8
17 7 35 -5 17 -11 33 -14 53 -8 25 6 29 13 32 50 3 45 -18 91 -42 91 -7 0 -20
-10 -28 -22 -14 -20 -17 -21 -73 -10 -43 9 -68 21 -92 44 -30 29 -37 62 -8 38
10 -8 17 -6 28 10 12 17 18 19 41 10 37 -14 46 -13 46 6 0 17 -30 46 -72 69
-19 10 -29 26 -34 51 -4 24 -14 39 -31 47 -16 7 -23 17 -21 31 5 32 31 30 66
-4 40 -38 74 -39 93 -4 13 24 12 28 -14 50 -16 13 -39 24 -53 24 -13 0 -24 5
-24 11 0 7 9 9 24 5 26 -6 29 -1 41 87 8 53 -4 77 -39 77 -12 0 -27 5 -33 11
-6 6 -21 9 -34 7 -18 -2 -23 -8 -21 -25 2 -16 -2 -23 -13 -23 -13 0 -16 6 -12
23 5 17 0 26 -23 39 -21 12 -30 27 -35 55 -11 63 -13 67 -30 53 -9 -8 -13 -21
-10 -31 4 -12 1 -21 -9 -25 -23 -9 -19 -23 9 -34 34 -13 32 -44 -6 -71 -23
-16 -36 -20 -47 -12 -18 11 -20 14 -61 100 -16 34 -34 68 -40 75 -136 163
-310 294 -586 438 -77 40 -145 77 -152 82 -6 5 -40 21 -75 36 -82 34 -166 85
-231 139 -49 41 -110 66 -201 82 -39 6 -41 9 -76 86 -58 133 -72 149 -84 100z
m8 -1013 c-1 -17 -11 -43 -23 -58 -12 -15 -19 -35 -16 -45 3 -9 1 -20 -5 -24
-16 -10 -12 68 5 101 8 16 15 37 15 47 0 11 5 17 13 14 6 -2 11 -18 11 -35z
m-1234 -112 c0 -11 0 -23 1 -27 0 -4 -4 -9 -9 -11 -13 -4 -26 34 -17 48 10 17
25 11 25 -10z m2960 -35 c0 -8 -4 -15 -10 -15 -5 0 -10 7 -10 15 0 8 5 15 10
15 6 0 10 -7 10 -15z m-2766 -57 c-9 -70 -26 -142 -36 -155 -5 -6 -14 -24 -19
-40 -8 -25 -8 -25 -3 7 3 19 8 71 10 114 5 85 16 116 39 116 12 0 14 -9 9 -42z
m2924 -830 c-2 -13 -7 -23 -13 -23 -5 0 -11 10 -13 23 -2 15 2 22 13 22 11 0
15 -7 13 -22z"/>
<path d="M5722 5628 c-18 -18 -14 -28 8 -28 11 0 20 6 20 14 0 21 -15 27 -28
14z"/>
<path d="M3850 5552 c-185 -62 -308 -136 -359 -214 -19 -29 -62 -82 -96 -118
-76 -82 -92 -105 -143 -213 -30 -62 -41 -99 -40 -127 1 -31 -4 -45 -26 -65
-15 -14 -31 -25 -36 -25 -16 0 -80 -33 -80 -42 0 -4 -4 -8 -10 -8 -15 0 -12
83 4 127 46 129 56 176 38 187 -18 11 -92 -136 -112 -224 -13 -55 -43 -135
-52 -138 -4 -2 -8 -11 -8 -20 0 -9 -16 -28 -35 -41 -19 -13 -35 -27 -35 -32 0
-5 -6 -9 -13 -9 -8 0 -27 -19 -44 -43 -27 -37 -30 -49 -26 -89 3 -26 -2 -111
-12 -190 -15 -123 -17 -193 -12 -508 9 -542 61 -1133 96 -1094 5 5 23 72 40
149 18 77 54 221 80 320 27 99 56 216 66 260 9 44 21 94 25 110 5 17 14 57 19
90 12 69 27 151 47 250 7 39 21 111 29 160 33 187 48 253 76 350 36 121 45
154 59 225 11 54 126 300 140 300 4 0 10 9 13 20 6 23 27 27 27 6 0 -8 -6 -27
-14 -43 -27 -52 -46 -101 -46 -117 0 -24 18 -19 26 7 4 12 10 24 13 27 4 3 24
34 45 70 20 36 42 72 47 80 5 8 14 27 20 43 6 15 14 27 19 27 4 0 10 14 14 31
8 42 26 27 26 -22 0 -40 -23 -99 -39 -99 -9 0 -18 -16 -111 -197 -121 -236
-211 -498 -283 -828 -9 -38 -30 -133 -47 -210 -30 -134 -46 -209 -75 -340 -12
-55 -23 -111 -60 -300 -8 -38 -19 -97 -26 -130 -15 -76 -17 -129 -4 -135 6 -3
11 10 13 29 2 19 10 44 18 55 8 11 14 31 14 43 0 12 6 37 14 55 18 44 67 220
106 378 4 19 13 49 18 65 10 29 25 84 41 155 18 76 56 223 76 295 8 28 19 70
25 95 6 25 18 72 26 105 8 33 19 81 24 106 19 102 111 411 138 466 8 17 21 45
55 126 8 17 22 49 31 70 9 21 16 49 16 63 0 18 7 28 21 31 28 8 39 42 39 119
0 67 16 87 27 34 8 -43 20 -46 29 -8 3 18 15 49 25 68 11 19 22 49 25 67 3 18
10 33 15 33 5 0 6 13 3 29 -9 41 76 200 139 260 26 25 47 49 47 53 0 12 -60 7
-110 -10z m-140 -140 c0 -5 -15 -19 -32 -32 -116 -86 -235 -221 -275 -312 -7
-16 -18 -28 -25 -28 -7 0 -19 -10 -26 -21 -9 -13 -17 -18 -23 -12 -10 10 66
169 99 208 22 26 218 175 230 175 5 0 15 7 22 15 13 16 30 20 30 7z m-36 -286
c-5 -13 -10 -14 -20 -5 -10 8 -11 16 -3 32 10 18 13 18 20 4 5 -8 6 -23 3 -31z
m-69 -5 c3 -5 -5 -17 -17 -25 -12 -9 -27 -25 -34 -37 -6 -12 -14 -17 -17 -12
-7 11 39 83 53 83 5 0 11 -4 15 -9z m-424 -358 c-28 -54 -79 -249 -121 -463
-11 -58 -24 -123 -30 -145 -5 -22 -12 -61 -15 -88 -4 -27 -11 -45 -16 -41 -12
7 -10 244 2 295 5 20 16 75 24 122 28 160 93 316 133 317 6 0 12 5 12 10 0 6
5 10 10 10 7 0 7 -6 1 -17z"/>
<path d="M3260 5229 c-18 -23 -41 -62 -50 -88 -10 -25 -29 -68 -43 -96 -24
-51 -51 -133 -62 -192 -5 -26 -3 -33 10 -33 20 0 54 73 55 117 0 18 20 72 44
120 25 49 47 95 50 103 4 8 15 29 25 45 20 31 27 65 13 65 -5 0 -24 -19 -42
-41z"/>
<path d="M2743 5088 c-11 -24 -27 -61 -36 -83 -48 -125 -60 -154 -83 -196 -13
-26 -24 -62 -24 -80 0 -54 -17 -70 -25 -23 -3 21 -10 48 -14 59 -8 20 -8 20
-18 0 -17 -32 -54 -339 -56 -465 -2 -128 7 -272 18 -290 4 -6 0 -19 -9 -29
-20 -22 -20 -79 -1 -151 11 -42 12 -61 4 -82 -6 -16 -8 -46 -5 -70 19 -127 21
-319 3 -298 -11 13 -37 75 -37 87 0 8 -9 31 -19 51 -11 20 -24 49 -30 65 -7
18 -18 27 -33 27 -23 0 -23 0 -21 -142 1 -79 6 -156 12 -171 11 -28 -1 -73
-17 -65 -4 2 -24 12 -44 21 -25 12 -42 29 -54 57 -10 22 -23 40 -29 40 -25 0
-65 -56 -65 -91 0 -18 -4 -39 -8 -44 -14 -21 -59 -43 -99 -50 -54 -9 -62 -31
-30 -82 31 -48 64 -83 79 -83 7 0 9 -15 5 -44 -6 -39 -4 -46 13 -51 11 -3 24
-4 29 -1 13 9 141 -33 146 -47 18 -60 16 -68 -23 -105 -21 -20 -53 -48 -70
-61 -18 -13 -32 -29 -32 -37 0 -8 -10 -14 -24 -14 -36 0 -84 -20 -90 -37 -5
-13 0 -15 36 -10 23 3 80 3 127 0 69 -5 85 -9 88 -24 3 -10 16 -25 29 -34 13
-8 24 -22 24 -30 0 -8 -20 -48 -44 -89 -37 -63 -42 -77 -30 -87 25 -20 15 -47
-31 -85 -69 -56 -52 -102 26 -70 19 7 54 17 77 21 27 4 52 16 65 31 25 29 47
31 47 4 0 -32 -19 -64 -51 -85 -31 -21 -64 -63 -56 -72 7 -6 50 19 60 35 10
15 27 16 27 2 0 -6 -25 -41 -55 -77 -30 -37 -55 -73 -55 -81 0 -14 7 -14 158
4 54 6 69 -5 35 -25 -17 -10 -17 -12 0 -25 25 -19 21 -26 -13 -26 -20 0 -33
-6 -37 -18 -16 -46 -82 -87 -68 -42 4 14 2 20 -9 20 -8 0 -18 -5 -21 -10 -3
-6 -15 -10 -26 -10 -21 0 -25 -20 -8 -37 17 -17 -5 -49 -38 -56 -15 -3 -40 -3
-54 0 -40 7 -45 -15 -7 -25 l33 -9 -40 -21 c-22 -12 -52 -26 -67 -33 -16 -6
-28 -15 -28 -20 0 -4 -31 -17 -69 -29 -64 -19 -71 -23 -81 -56 -10 -28 -9 -39
3 -58 9 -13 20 -39 25 -57 l8 -34 70 -1 c74 -2 102 9 196 74 26 17 52 32 58
32 5 0 17 11 26 25 9 14 23 25 30 25 16 0 84 101 84 124 0 8 5 18 11 22 6 3
17 21 25 38 8 17 23 45 34 61 11 17 22 37 25 45 3 8 13 28 21 43 7 16 14 35
14 43 0 8 5 14 10 14 6 0 15 10 20 23 6 12 19 36 30 52 42 63 85 188 73 209
-4 5 -8 151 -10 325 -1 174 -8 348 -13 386 -6 39 -15 118 -20 175 -5 58 -17
166 -26 240 -19 147 -21 276 -11 710 10 392 19 496 79 863 17 104 21 198 10
209 -6 6 -17 -6 -29 -34z m-335 -1895 c18 -35 23 -73 10 -73 -14 0 -48 54 -48
76 0 20 28 17 38 -3z m-202 -1730 c-5 -12 -10 -13 -18 -5 -8 8 -8 15 3 28 15
18 25 4 15 -23z"/>
<path d="M2967 5053 c-13 -22 -17 -72 -6 -78 15 -10 29 13 29 47 0 26 -14 46
-23 31z"/>
<path d="M2863 4910 c-12 -25 -29 -90 -38 -145 -8 -55 -17 -113 -20 -128 -3
-19 0 -30 11 -34 24 -9 61 44 68 97 13 89 17 196 8 225 l-8 29 -21 -44z"/>
<path d="M3630 4761 c0 -12 5 -21 10 -21 6 0 10 6 10 14 0 8 -4 18 -10 21 -5
3 -10 -3 -10 -14z"/>
<path d="M3650 4707 c0 -13 -5 -28 -12 -35 -30 -30 -65 -262 -40 -262 6 0 14
17 17 38 3 20 12 60 20 88 8 28 15 59 15 70 0 10 7 32 15 48 20 37 20 76 0 76
-9 0 -15 -9 -15 -23z"/>
<path d="M3721 4638 c-1 -19 4 -28 14 -28 13 0 15 -24 15 -159 0 -158 6 -221
20 -221 16 0 21 37 27 180 l5 145 -28 36 c-16 20 -34 45 -41 55 -11 17 -12 17
-12 -8z"/>
<path d="M7112 4612 c-18 -12 -15 -267 3 -282 14 -11 18 12 31 185 5 74 -8
113 -34 97z"/>
<path d="M2017 4453 c-10 -10 -8 -43 2 -43 23 0 41 14 41 31 0 19 -29 27 -43
12z"/>
<path d="M3566 4384 c-9 -24 -7 -54 4 -54 6 0 10 6 10 13 0 6 3 22 6 35 7 25
-11 31 -20 6z"/>
<path d="M1838 4319 c-10 -26 3 -101 16 -96 7 3 20 -1 31 -9 27 -20 53 -17 60
7 4 11 12 18 18 16 21 -8 47 13 47 37 0 27 -22 40 -38 24 -6 -6 -33 -13 -60
-14 -45 -2 -50 0 -58 24 -8 21 -11 24 -16 11z"/>
<path d="M6965 4198 c3 -13 9 -33 12 -45 7 -30 33 -30 33 0 0 26 -26 67 -42
67 -6 0 -8 -9 -3 -22z"/>
<path d="M2170 4195 c0 -8 5 -15 10 -15 6 0 10 7 10 15 0 8 -4 15 -10 15 -5 0
-10 -7 -10 -15z"/>
<path d="M1840 4145 c0 -15 4 -24 10 -20 6 3 10 12 10 20 0 8 -4 17 -10 20 -6
4 -10 -5 -10 -20z"/>
<path d="M2060 4110 c0 -48 15 -53 24 -9 9 45 8 49 -9 49 -11 0 -15 -11 -15
-40z"/>
<path d="M1951 4094 c-24 -31 -24 -52 1 -67 26 -17 50 9 46 51 -4 45 -20 50
-47 16z"/>
<path d="M1836 3984 c-10 -25 -7 -221 4 -248 13 -36 40 -23 40 19 0 19 -4 37
-10 40 -5 3 -10 17 -10 30 0 31 32 49 76 41 26 -5 38 -2 54 14 17 17 19 24 9
36 -10 13 -14 13 -29 -1 -25 -22 -65 -2 -76 37 -10 35 -49 56 -58 32z"/>
<path d="M3300 3714 c-6 -14 -17 -49 -26 -77 -9 -29 -19 -63 -24 -77 -4 -14
-16 -54 -25 -90 -27 -101 -55 -192 -71 -227 -8 -17 -14 -39 -14 -48 0 -9 -5
-26 -12 -38 -6 -12 -15 -40 -19 -62 -3 -22 -18 -83 -32 -135 -14 -52 -28 -112
-31 -132 -7 -37 -48 -161 -84 -253 -11 -27 -48 -124 -82 -215 -34 -91 -99
-237 -143 -325 -123 -245 -132 -263 -185 -390 -16 -38 -46 -104 -66 -146 -36
-78 -43 -99 -28 -99 8 0 94 112 117 151 33 58 69 115 75 119 3 3 17 23 30 45
13 22 26 42 30 45 3 3 16 22 30 42 29 44 40 48 40 13 0 -28 12 -32 30 -10 23
27 33 1 16 -40 -9 -21 -16 -56 -16 -79 0 -22 -6 -52 -13 -66 -9 -17 -10 -30
-4 -41 7 -11 5 -36 -5 -76 -13 -53 -13 -64 0 -88 14 -28 18 -212 6 -283 -4
-18 -1 -38 5 -46 7 -8 11 -36 11 -62 -2 -74 18 -432 25 -455 8 -24 21 -24 34
0 14 24 55 185 74 286 20 102 58 360 92 605 42 318 67 480 80 533 8 33 13 62
11 65 -5 8 13 125 43 292 20 105 36 197 76 430 8 47 21 146 30 220 8 74 20
173 25 220 13 107 25 520 16 520 -3 0 -11 -12 -16 -26z"/>
<path d="M1840 3599 c0 -11 5 -17 10 -14 6 3 10 13 10 21 0 8 -4 14 -10 14 -5
0 -10 -9 -10 -21z"/>
<path d="M1933 3012 c-6 -4 -13 -18 -14 -32 -3 -21 -9 -25 -36 -25 -43 0 -55
-15 -51 -61 3 -37 5 -39 33 -36 37 4 64 37 65 78 0 19 6 34 15 38 16 6 20 31
7 40 -4 2 -13 2 -19 -2z"/>
<path d="M1962 2817 c-15 -16 -22 -36 -22 -65 0 -45 14 -57 24 -19 3 13 19 36
35 53 21 21 27 32 19 41 -15 19 -32 16 -56 -10z"/>
<path d="M2174 2781 c-29 -17 -83 -81 -69 -81 12 0 81 49 104 74 30 31 11 35
-35 7z"/>
<path d="M2263 2521 c-11 -17 -10 -18 13 -7 26 12 32 26 11 26 -7 0 -17 -8
-24 -19z"/>
<path d="M2215 2424 c-70 -15 -106 -29 -123 -48 -38 -42 -95 -161 -103 -216
-4 -30 -11 -70 -15 -87 -7 -38 12 -46 37 -15 21 24 79 139 79 155 0 14 93 122
143 167 15 13 27 30 27 37 0 13 -8 14 -45 7z"/>
<path d="M1961 2397 c-11 -28 -27 -41 -67 -55 -21 -7 -35 -7 -42 0 -12 12 -20
-73 -22 -234 -1 -94 2 -118 12 -118 22 0 38 22 38 50 0 14 4 30 9 35 5 6 11
26 13 45 3 30 7 35 31 38 32 4 42 21 33 57 -4 16 -13 25 -26 25 -37 0 -36 43
1 53 10 3 19 13 19 24 0 10 9 32 20 48 11 17 20 36 20 43 0 21 -30 13 -39 -11z"/>
<path d="M1925 1850 c-25 -27 -7 -46 23 -24 24 17 30 44 9 44 -8 0 -22 -9 -32
-20z"/>
<path d="M1830 1835 c0 -14 5 -25 10 -25 6 0 10 11 10 25 0 14 -4 25 -10 25
-5 0 -10 -11 -10 -25z"/>
<path d="M2007 1833 c-13 -12 -7 -50 9 -64 14 -11 19 -10 35 10 25 31 24 40
-7 51 -30 12 -29 12 -37 3z"/>
<path d="M2690 1384 c0 -9 5 -14 12 -12 18 6 21 28 4 28 -9 0 -16 -7 -16 -16z"/>
<path d="M2635 1348 c-18 -59 -22 -154 -10 -259 6 -46 3 -61 -15 -91 -30 -52
-70 -62 -70 -19 0 22 -26 46 -34 33 -10 -17 -9 -118 2 -138 6 -11 8 -38 5 -61
-3 -25 -1 -43 6 -47 6 -4 11 -15 11 -24 0 -9 14 -44 30 -77 16 -33 30 -65 30
-71 0 -18 110 -86 127 -79 14 5 15 24 10 149 -6 119 -4 153 10 195 15 48 15
52 0 64 -14 10 -15 16 -4 37 21 42 39 101 33 107 -3 3 -8 -2 -12 -11 -3 -9
-14 -16 -24 -16 -14 0 -20 11 -25 43 -8 52 -34 146 -47 170 -5 10 -6 38 -2 63
4 30 3 44 -5 44 -6 0 -13 -6 -16 -12z"/>
<path d="M6920 1285 c-16 -19 -6 -31 32 -40 35 -9 51 21 23 41 -24 18 -40 18
-55 -1z"/>
<path d="M7055 1041 c17 -10 34 -15 39 -11 15 14 -4 30 -37 30 l-32 0 30 -19z"/>
<path d="M2302 1028 c-18 -37 -33 -108 -27 -127 7 -24 57 -34 90 -19 28 13 31
25 10 52 -8 11 -15 33 -15 49 0 60 -36 88 -58 45z"/>
<path d="M2426 893 c-10 -10 -7 -101 4 -108 11 -7 36 30 45 66 5 20 2 27 -18
36 -14 7 -28 9 -31 6z"/>
<path d="M2260 380 c-13 -9 -13 -11 0 -20 25 -16 52 -12 48 7 -4 21 -27 27
-48 13z"/>
<path d="M1890 10 c0 -5 9 -10 21 -10 11 0 17 4 14 10 -8 13 -35 13 -35 0z"/>
<path d="M2535 10 c-4 -6 10 -10 35 -10 25 0 39 4 35 10 -8 13 -62 13 -70 0z"/>
<path d="M2033 3 c9 -2 25 -2 35 0 9 3 1 5 -18 5 -19 0 -27 -2 -17 -5z"/>
</g>
</svg>
